# xmcd
#
# Track frame offsets:
#	150
#	14700
#	25600
#	42325
#	57975
#	72975
#	83925
#	100850
#	118275
#	132325
#	147000
#	165000
#	179975
#	193800
#	207700
#	223175
#
# Disc length: 3179 seconds
#
# Revision: 0
# Processed by: cddbd v1.5.2PL0 Copyright (c) Steve Scherf et al.
# Submitted via: EZCDAudioConverter 1.6.1.1
#
DISCID=f80c6910
DTITLE=piano - 鋼琴之愛04
DYEAR=1900
DGENRE=
TTITLE0=Yesterday when I was young
TTITLE1=Mandy
TTITLE2=Let it be
TTITLE3=Rain and tears
TTITLE4=Feelings
TTITLE5=Yesterday
TTITLE6=Morning has broken
TTITLE7=Without you
TTITLE8=Bridge over troubled water
TTITLE9=You don't have to say you love me
TTITLE10=You needed me
TTITLE11=The end of the world
TTITLE12=And I love you so
TTITLE13=500 miles
TTITLE14=Green green grass of home
TTITLE15=Tennesse waltz
EXTD=
EXTT0=
EXTT1=
EXTT2=
EXTT3=
EXTT4=
EXTT5=
EXTT6=
EXTT7=
EXTT8=
EXTT9=
EXTT10=
EXTT11=
EXTT12=
EXTT13=
EXTT14=
EXTT15=
PLAYORDER=
